<svg xmlns="http://www.w3.org/2000/svg" viewBox="0 0 520 460">
  <g fill="#FF5100">
    <polygon points="516.5 49.62 485.35 49.68 485.3 18.25 516.51 18.3 516.5 49.62" />
    <path d="M276.78,22.38L227.32,0l-42.39,13.94,49.97,22.47c.39,0,41.88-14.03,41.88-14.03Z" />
    <rect x="434.67" y="105.3" width="52.75" height="52.45" transform="translate(329.13 592.47) rotate(-89.95)" />
    <polygon points="513.83 316.65 466.66 316.4 466.61 269.56 513.77 269.5 513.83 316.65" />
    <polygon points="430.29 272.94 383.09 273.03 383.23 227.88 429.81 227.06 430.29 272.94" />
    <polygon points="353.76 131.95 310.51 132.03 310.44 88.38 353.78 88.46 353.76 131.95" />
    <polygon points="414.96 68.34 381.32 68.41 381.26 34.45 414.98 34.51 414.96 68.34" />
    <path d="M55.34,304.55L.09,279.57l-.09,76.58,56.06,25.84c-.86-.86-.72-77.44-.72-77.44Z" />
    <polygon points="71.41 311.22 72.54 388.95 128.76 414.8 128.74 338.24 71.41 311.22" />
    <polygon points="145.81 345.95 147.29 423.67 205.2 450.57 204.92 372.83 145.81 345.95" />
    <polygon points="147.29 327.05 205.2 353.95 205.29 277.25 145.81 249.96 147.29 327.05" />
    <polygon points="71.41 215.53 72.54 293.26 128.76 319.11 128.74 242.54 71.41 215.53" />
    <path d="M55.34,208.85L.09,183.87l-.09,76.58,56.06,25.84c-.86-.86-.72-77.44-.72-77.44Z" />
    <polygon points="145.81 154.01 147.19 231.29 205.04 258.15 204.92 180.9 145.81 154.01" />
    <polygon points="71.41 118.28 72.54 196.01 128.76 221.86 128.74 145.3 71.41 118.28" />
    <path d="M55.34,111.61L.09,86.63l-.09,76.58,56.06,25.84c-.86-.86-.72-77.44-.72-77.44Z" />
    <polygon points="143.18 70.14 93.72 47.76 17.17 75.54 67.14 98.01 143.18 70.14" />
    <polygon points="86.13 105.81 140.39 131.7 212.47 103.15 160.87 79.25 86.13 105.81" />
    <polygon points="182.36 73.05 233.75 96.06 282.9 77.87 231.3 53.96 182.36 73.05" />
    <path d="M213.61,44.86l-49.46-22.38-53.63,17.43,49.97,22.47c.39,0,53.12-17.52,53.12-17.52Z" />
    <polygon points="351.18 53.73 299.59 29.83 255.81 46.48 308.54 70.87 351.18 53.73" />
    <polygon points="286.91 150.39 222.27 182.35 222.76 256.37 288.03 223.29 286.91 150.39" />
    <rect x="327.37" y="336.57" width="52.03" height="51.78" />
    <polygon points="286.91 346.19 222.27 378.16 222.76 452.18 288.03 419.09 286.91 346.19" />
    <polygon points="159.39 141.02 213.24 167.36 282.27 135.78 232.15 113.12 159.39 141.02" />
    <rect x="323.72" y="157.79" width="56.6" height="55.23" />
    <rect x="271.72" y="259.9" width="59.92" height="59.84" />
  </g>
</svg>
